<?xml version="1.0" encoding="UTF-8"?>
<svg id="Layer_2" data-name="Layer 2" xmlns="http://www.w3.org/2000/svg" viewBox="0 0 5.13 7.28">
  <defs>
    <style>
      .cls-1 {
        fill: none;
        stroke: #231f20;
        stroke-miterlimit: 10;
        stroke-width: .25px;
      }
    </style>
  </defs>
  <g id="Layer_1-2" data-name="Layer 1">
    <g>
      <path class="cls-1" d="M2.84,5.54c-.24-.3-.47-.24-.74.04-.27.29-.53.66-.67.98-.13.28-.09.49.19.54.51.09,1.09.08,1.53-.02.32-.08.37-.29.29-.48-.13-.34-.36-.76-.6-1.06Z"/>
      <path class="cls-1" d="M4.93,1.74c-.07-.25-.19-.49-.34-.69-.24-.32-.56-.56-.92-.72-.34-.15-.74-.23-1.11-.19h0c-.44.03-.88.13-1.27.33-.27.14-.52.33-.72.57s-.35.49-.41.78c-.08.41.06.81.4,1.05.28.19.64.27.97.23.42-.06.7-.27.87-.55.21-.34.22-.67-.22-.68-.38-.01-.37-.29-.02-.54.45-.32,1.18-.18,1.38.4.15.43.08.99-.39,1.24-.51.27-.73.08-1.16.33-.27.15-.27.34-.17.61.09.25.06.45.02.66-.05.24-.03.42.18.49.22.08.48.07.72,0,.35-.11.35-.3.38-.74.01-.22.14-.3.43-.36.31-.07,1.02-.33,1.26-.89.24-.4.26-.87.14-1.31Z"/>
    </g>
  </g>
</svg>