<?xml version="1.0" encoding="UTF-8"?>
<svg id="Layer_2" data-name="Layer 2" xmlns="http://www.w3.org/2000/svg" viewBox="0 0 51.8 74.64">
  <defs>
    <style>
      .cls-1 {
        fill: #231f20;
      }
    </style>
  </defs>
  <g id="Layer_1-2" data-name="Layer 1">
    <g>
      <path class="cls-1" d="M28.82,57.4c-2.52-3.13-4.98-2.56-7.86.44-2.91,3.03-5.58,6.95-7.09,10.36-1.34,3.01-.92,5.23,2.04,5.77,5.43.99,11.54.88,16.19-.26,3.4-.83,3.89-3.08,3.13-5.07-1.39-3.63-3.86-8.08-6.4-11.24Z"/>
      <path class="cls-1" d="M50.99,17.11c-.76-2.64-2.02-5.16-3.62-7.33-2.5-3.39-5.92-5.99-9.77-7.66C33.97.55,29.78-.31,25.78.1v-.02c-4.66.32-9.31,1.37-13.48,3.51-2.91,1.5-5.55,3.52-7.69,6.01C2.57,11.99.89,14.82.25,17.91c-.89,4.37.59,8.58,4.28,11.16,2.93,2.05,6.74,2.9,10.27,2.41,4.46-.62,7.43-2.85,9.24-5.84,2.22-3.64,2.37-7.1-2.28-7.22-4.01-.11-3.94-3.04-.21-5.71,4.75-3.4,12.48-1.87,14.63,4.21,1.63,4.58.83,10.54-4.12,13.15-5.4,2.85-7.76.89-12.32,3.47-2.85,1.61-2.88,3.64-1.84,6.52.96,2.63.67,4.78.17,7.03-.57,2.55-.29,4.41,1.89,5.21,2.34.86,5.1.73,7.67-.1,3.72-1.2,3.76-3.23,3.99-7.82.11-2.28,1.5-3.2,4.53-3.86,3.33-.72,10.78-3.54,13.36-9.48,2.59-4.25,2.8-9.27,1.47-13.91Z"/>
    </g>
  </g>
</svg>